#!OML:ASF H:\GeneralSubjects\Female5\Project 1\Capture day 1\Session 1\Female5.ASF
:FULLY-SPECIFIED
:DEGREES
492
root -10.6138 15.9678 3.10613 349.067 -102.366 -339.887
lowerback 7.81179 3.07284 2.92509
upperback -10.789 4.52545 1.60512
thorax -16.4076 1.72182 -0.747752
lowerneck -19.0955 1.83357 2.63134
upperneck 36.3716 1.89188 -3.09748
head 16.2944 0.28609 -1.57736
rclavicle -2.13694e-015 -3.37934e-015
rhumerus -48.5904 13.4967 -84.2043
rradius 32.0303
rwrist -7.81364
rhand -22.569 -27.5823
rfingers 7.12502
rthumb 3.85931 -57.5271
lclavicle -2.13694e-015 -3.37934e-015
lhumerus -44.1057 3.35211 73.7022
lradius 26.2648
lwrist -12.5437
lhand -26.356 34.7455
lfingers 7.12502
lthumb 0.201923 -295.275
rfemur 13.1263 39.3182 44.2828
rtibia -12.5126
rfoot -43.5737 -40.7624
rtoes 17.0245
lfemur -26.8065 -32.3382 -5.45905
ltibia 3.93047
lfoot -38.6309 -5.718
ltoes -0.498425
493
root -10.6043 15.9655 3.09988 348.509 -102.125 -339.347
lowerback 7.8052 3.04109 2.87188
upperback -10.793 4.48182 1.67026
thorax -16.4202 1.71317 -0.635385
lowerneck -19.0335 1.74074 2.6656
upperneck 36.4459 1.75122 -3.15499
head 16.3122 0.221292 -1.63844
rclavicle 2.32578e-014 4.55217e-014
rhumerus -48.8416 13.7612 -84.413
rradius 31.6755
rwrist -7.67361
rhand -22.7477 -27.455
rfingers 7.12502
rthumb 3.6867 -57.4029
lclavicle 2.32578e-014 4.55217e-014
lhumerus -44.072 3.10281 74.1349
lradius 26.497
lwrist -12.0338
lhand -26.0424 34.6352
lfingers 7.12502
lthumb 0.504827 -295.386
rfemur 12.9989 39.0733 44.2432
rtibia -12.4841
rfoot -43.6268 -40.6872
rtoes 17.135
lfemur -26.9271 -32.5635 -5.3417
ltibia 3.88462
lfoot -38.5996 -6.18788
ltoes -0.655995
494
root -10.5927 15.9635 3.09529 347.459 -101.894 -338.346
lowerback 7.82011 2.99356 2.89489
upperback -10.7329 4.43886 1.79848
thorax -16.3666 1.70411 -0.494762
lowerneck -18.9385 1.62542 2.66344
upperneck 36.3588 1.60473 -3.2238
head 16.2387 0.152078 -1.69324
rclavicle 2.78299e-015 1.53064e-014
rhumerus -48.8927 14.1112 -84.5427
rradius 31.3361
rwrist -7.84845
rhand -22.945 -27.111
rfingers 7.12502
rthumb 3.4962 -57.0621
lclavicle 2.78299e-015 1.53064e-014
lhumerus -44.0283 3.03028 74.6605
lradius 26.916
lwrist -11.6365
lhand -26.1206 34.4284
lfingers 7.12502
lthumb 0.429313 -295.592
rfemur 12.9875 38.7931 44.364
rtibia -12.5617
rfoot -43.7475 -40.5119
rtoes 17.4562
lfemur -26.994 -32.7872 -5.15581
ltibia 3.82657
lfoot -38.564 -6.57486
ltoes -0.748693
495
root -10.5797 15.9612 3.08923 346.936 -101.647 -337.861
lowerback 7.84677 2.96904 2.84228
upperback -10.6945 4.40701 1.84867
thorax -16.3457 1.70198 -0.403672
lowerneck -18.8902 1.48789 2.57654
upperneck 36.3199 1.39278 -3.1334
head 16.1954 0.0664431 -1.67699
rclavicle -3.05134e-014 -2.5842e-014
rhumerus -48.8312 14.1889 -84.5194
rradius 31.0592
rwrist -7.93857
rhand -22.4999 -27.1304
rfingers 7.12502
rthumb 3.926 -57.0739
lclavicle -3.05134e-014 -2.5842e-014
lhumerus -44.0522 2.54025 75.4233
lradius 27.487
lwrist -10.922
lhand -26.2734 34.5463
lfingers 7.12502
lthumb 0.281661 -295.474
rfemur 12.869 38.5348 44.2737
rtibia -12.5852
rfoot -43.8245 -40.2686
rtoes 17.7002
lfemur -27.0658 -33.0795 -5.03245
ltibia 3.70526
lfoot -38.6264 -6.14621
ltoes -0.217925
496
root -10.5652 15.9574 3.08366 346.865 -101.382 -337.774
lowerback 7.86749 2.95726 2.74171
upperback -10.7268 4.37601 1.83984
thorax -16.4074 1.69735 -0.352852
lowerneck -18.7943 1.35117 2.48285
upperneck 36.3463 1.15112 -2.97215
head 16.1725 -0.0246889 -1.63632
rclavicle 9.24349e-015 2.84262e-014
rhumerus -48.884 14.1465 -84.481
rradius 30.8529
rwrist -7.88074
rhand -22.1522 -27.1792
rfingers 7.12502
rthumb 4.26184 -57.1163
lclavicle 9.24349e-015 2.84262e-014
lhumerus -44.0939 2.01857 76.1754
lradius 28.0128
lwrist -10.1362
lhand -26.0113 34.8436
lfingers 7.12502
lthumb 0.534841 -295.177
rfemur 12.5793 38.3076 43.9589
rtibia -12.5296
rfoot -43.544 -40.4121
rtoes 17.1705
lfemur -27.2468 -33.307 -4.97726
ltibia 3.62802
lfoot -38.6676 -5.96656
ltoes 0.0359705
497
root -10.5502 15.9519 3.07866 346.459 -101.141 -337.379
lowerback 7.92984 2.91304 2.626
upperback -10.7457 4.3121 1.92796
thorax -16.4913 1.68687 -0.178941
lowerneck -18.6333 1.23515 2.37056
upperneck 36.3132 0.976354 -2.87913
head 16.1076 -0.100462 -1.60736
rclavicle -1.39149e-014 -8.74653e-015
rhumerus -48.9686 14.3652 -84.4908
rradius 30.7572
rwrist -7.97563
rhand -22.3723 -27.2235
rfingers 7.12502
rthumb 4.04925 -57.1648
lclavicle -1.39149e-014 -8.74653e-015
lhumerus -44.1026 1.83277 76.9016
lradius 28.4833
lwrist -9.31935
lhand -25.8661 34.5882
lfingers 7.12502
lthumb 0.675117 -295.433
rfemur 12.4457 38.0738 43.8686
rtibia -12.5276
rfoot -43.2345 -40.6105
rtoes 16.801
lfemur -27.3932 -33.6542 -4.82935
ltibia 3.52804
lfoot -38.8959 -6.38348
ltoes -0.620185
498
root -10.5365 15.9478 3.07308 345.665 -100.889 -336.574
lowerback 7.93379 2.85903 2.59379
upperback -10.7452 4.24598 2.0292
thorax -16.5066 1.6682 -0.032587
lowerneck -18.5712 1.11438 2.29672
upperneck 36.3433 0.807645 -2.86498
head 16.1002 -0.180833 -1.62087
rclavicle -7.25564e-015 1.39149e-014
rhumerus -48.9367 14.5912 -84.4844
rradius 30.7012
rwrist -8.10949
rhand -22.5843 -27.4905
rfingers 7.12502
rthumb 3.84456 -57.4355
lclavicle -7.25564e-015 1.39149e-014
lhumerus -43.9739 1.62639 77.7004
lradius 28.7705
lwrist -9.01601
lhand -26.1845 34.0404
lfingers 7.12502
lthumb 0.367591 -295.98
rfemur 12.3502 37.8129 43.8963
rtibia -12.5608
rfoot -43.2092 -40.3564
rtoes 16.9679
lfemur -27.552 -33.9451 -4.61727
ltibia 3.41323
lfoot -39.023 -6.54444
ltoes -0.95493
499
root -10.5249 15.9463 3.06765 344.912 -100.627 -335.761
lowerback 7.8647 2.84557 2.68653
upperback -10.7737 4.23601 2.01384
thorax -16.4885 1.65076 -0.0959005
lowerneck -18.4827 0.935106 2.27664
upperneck 36.3813 0.506549 -2.79522
head 16.0855 -0.300667 -1.64444
rclavicle -1.16289e-014 -4.77083e-015
rhumerus -48.9045 14.458 -84.4193
rradius 30.7122
rwrist -8.09644
rhand -22.6552 -27.7436
rfingers 7.12502
rthumb 3.77607 -57.6899
lclavicle -1.16289e-014 -4.77083e-015
lhumerus -43.8327 1.04508 78.5746
lradius 29.0855
lwrist -9.30924
lhand -26.7334 33.8595
lfingers 7.12502
lthumb -0.162571 -296.161
rfemur 12.0637 37.5607 43.7437
rtibia -12.4924
rfoot -42.9646 -40.3805
rtoes 16.2445
lfemur -27.7984 -34.0009 -4.47483
ltibia 3.39738
lfoot -38.7875 -6.92846
ltoes -0.730084
500
root -10.5126 15.9442 3.06011 343.908 -100.439 -334.765
lowerback 7.89412 2.85404 2.79547
upperback -10.7824 4.26733 2.01416
thorax -16.5105 1.6516 -0.164108
lowerneck -18.3682 0.748719 2.12031
upperneck 36.3695 0.176955 -2.53914
head 16.0383 -0.423002 -1.56575
rclavicle -2.32081e-014 -3.57812e-015
rhumerus -48.8881 14.1871 -84.2736
rradius 30.8475
rwrist -7.91838
rhand -22.6617 -27.807
rfingers 7.12502
rthumb 3.76978 -57.7534
lclavicle -2.32081e-014 -3.57812e-015
lhumerus -43.8292 0.213098 79.5778
lradius 29.748
lwrist -9.24951
lhand -27.112 33.7573
lfingers 7.12502
lthumb -0.528222 -296.264
rfemur 11.8351 37.3495 43.73
rtibia -12.3334
rfoot -42.4757 -40.7551
rtoes 15.2491
lfemur -27.9472 -34.0266 -4.31009
ltibia 3.4032
lfoot -38.5769 -7.44991
ltoes -0.778472
501
root -10.4976 15.9398 3.05087 342.469 -100.276 -333.354
lowerback 7.94294 2.82459 2.865
upperback -10.7566 4.25402 2.11314
thorax -16.5151 1.64572 -0.0901196
lowerneck -18.3512 0.64086 2.03423
upperneck 36.403 -0.014049 -2.40191
head 16.0442 -0.495288 -1.52743
rclavicle 2.11209e-014 -2.78299e-015
rhumerus -48.7338 14.0596 -84.0805
rradius 30.9488
rwrist -7.73253
rhand -22.6223 -27.7461
rfingers 7.12502
rthumb 3.80784 -57.6918
lclavicle 2.11209e-014 -2.78299e-015
lhumerus -43.8443 -0.458524 80.5532
lradius 30.4543
lwrist -9.32511
lhand -26.7646 33.9235
lfingers 7.12502
lthumb -0.192774 -296.097
rfemur 11.7951 37.1232 43.9586
rtibia -12.332
rfoot -42.2104 -40.952
rtoes 14.915
lfemur -28.0844 -34.0133 -4.08009
ltibia 3.43916
lfoot -38.4824 -7.34898
ltoes -1.21189
502
root -10.4827 15.9342 3.04438 342.092 -99.9988 -332.957
lowerback 7.89998 2.76047 2.74565
upperback -10.727 4.15206 2.16118
thorax -16.4641 1.61937 0.0541058
lowerneck -18.4577 0.553504 2.06791
upperneck 36.5277 -0.153854 -2.44607
head 16.1283 -0.557031 -1.5839
rclavicle 1.71452e-014 3.26007e-014
rhumerus -48.4427 14.0697 -83.9386
rradius 31.0137
rwrist -7.61512
rhand -22.9289 -27.544
rfingers 7.12502
rthumb 3.51178 -57.4948
lclavicle 1.71452e-014 3.26007e-014
lhumerus -43.7657 -0.890195 81.372
lradius 30.9503
lwrist -9.9472
lhand -25.9287 34.6159
lfingers 7.12502
lthumb 0.614647 -295.405
rfemur 11.8235 36.8578 43.9648
rtibia -12.533
rfoot -42.2048 -41.0024
rtoes 14.9835
lfemur -28.3115 -34.2569 -4.02268
ltibia 3.47856
lfoot -38.6345 -6.75373
ltoes -1.31366
503
root -10.4684 15.9281 3.03853 342.122 -99.7278 -332.976
lowerback 7.8501 2.68762 2.57957
upperback -10.6709 4.02911 2.19077
thorax -16.3761 1.5889 0.207928
lowerneck -18.6887 0.470139 1.96678
upperneck 36.694 -0.280091 -2.38195
head 16.2651 -0.615417 -1.56935
rclavicle 1.56543e-014 2.0276e-014
rhumerus -48.1081 14.2823 -83.9072
rradius 31.2044
rwrist -7.69835
rhand -23.316 -27.5478
rfingers 7.12502
rthumb 3.13797 -57.5045
lclavicle 1.56543e-014 2.0276e-014
lhumerus -43.6114 -1.39692 82.2608
lradius 31.355
lwrist -9.63082
lhand -25.8464 34.6173
lfingers 7.12502
lthumb 0.694081 -295.404
rfemur 11.8195 36.6243 43.8749
rtibia -12.6845
rfoot -42.3402 -40.7506
rtoes 15.6036
lfemur -28.5005 -34.7408 -3.9468
ltibia 3.41317
lfoot -38.9721 -6.47356
ltoes -1.08052
504
root -10.4544 15.9228 3.03031 340.917 -99.5726 -331.749
lowerback 7.82939 2.63439 2.64459
upperback -10.624 3.97585 2.272
thorax -16.3069 1.56537 0.275818
lowerneck -18.822 0.372611 1.673
upperneck 36.7633 -0.449631 -2.05898
head 16.3295 -0.679358 -1.41106
rclavicle 3.37437e-014 1.66979e-014
rhumerus -47.8467 14.4763 -83.8393
rradius 31.5207
rwrist -7.87055
rhand -23.2182 -27.6802
rfingers 7.12502
rthumb 3.23241 -57.6354
lclavicle 3.37437e-014 1.66979e-014
lhumerus -43.5456 -2.11818 83.2485
lradius 31.9941
lwrist -8.77188
lhand -25.7301 34.5253
lfingers 7.12502
lthumb 0.806443 -295.497
rfemur 11.7237 36.4341 43.9978
rtibia -12.7085
rfoot -42.3174 -40.7221
rtoes 15.7423
lfemur -28.6737 -34.8877 -3.66673
ltibia 3.34825
lfoot -38.8495 -7.10819
ltoes -1.08444
505
root -10.4403 15.9195 3.02111 339.787 -99.4094 -330.555
lowerback 7.7669 2.61091 2.72049
upperback -10.616 3.95724 2.31687
thorax -16.2547 1.55224 0.290969
lowerneck -18.779 0.22398 1.37857
upperneck 36.7476 -0.704434 -1.71222
head 16.3066 -0.775777 -1.25442
rclavicle -1.17283e-014 4.37326e-015
rhumerus -47.6674 14.5202 -83.724
rradius 31.8848
rwrist -7.96164
rhand -23.0377 -27.5874
rfingers 7.12502
rthumb 3.40674 -57.5399
lclavicle -1.17283e-014 4.37326e-015
lhumerus -43.5772 -2.80956 84.0783
lradius 32.8693
lwrist -8.74612
lhand -24.5171 35.1504
lfingers 7.12502
lthumb 1.97795 -294.879
rfemur 11.5643 36.2517 44.0489
rtibia -12.7547
rfoot -42.0111 -41.1765
rtoes 14.8467
lfemur -28.9279 -34.7943 -3.46427
ltibia 3.41074
lfoot -38.5191 -7.30216
ltoes -1.12716
